<mxfile host="app.diagrams.net" agent="Mozilla/5.0 (Windows NT 10.0; Win64; x64) AppleWebKit/537.36 (KHTML, like Gecko) Chrome/137.0.0.0 Safari/537.36" version="27.1.6">
  <diagram name="Page-1" id="9vD9gA8dYqlT4B8zfabE">
    <mxGraphModel dx="2066" dy="1103" grid="1" gridSize="10" guides="1" tooltips="1" connect="1" arrows="1" fold="1" page="1" pageScale="1" pageWidth="850" pageHeight="1100" math="0" shadow="0">
      <root>
        <mxCell id="0" />
        <mxCell id="1" parent="0" />
        <mxCell id="JkSojsDAD6TwoO30HIZQ-1" value="&lt;font style=&quot;font-size: 14px;&quot;&gt;&lt;b&gt;Untrusted Network&lt;/b&gt;&lt;/font&gt;" style="sketch=0;aspect=fixed;pointerEvents=1;shadow=0;dashed=0;html=1;labelPosition=center;verticalLabelPosition=bottom;verticalAlign=top;align=center;shape=mxgraph.mscae.enterprise.internet;fillColor=#dae8fc;strokeColor=#6c8ebf;" vertex="1" parent="1">
          <mxGeometry x="750" y="580" width="258.07" height="160" as="geometry" />
        </mxCell>
        <mxCell id="JkSojsDAD6TwoO30HIZQ-2" value="&lt;font style=&quot;font-size: 14px;&quot;&gt;&lt;b&gt;&amp;nbsp;MDM Managed Device&lt;/b&gt;&lt;/font&gt;" style="sketch=0;aspect=fixed;pointerEvents=1;shadow=0;dashed=0;html=1;strokeColor=#6c8ebf;labelPosition=center;verticalLabelPosition=bottom;verticalAlign=top;align=center;fillColor=#dae8fc;shape=mxgraph.azure.mobile" vertex="1" parent="1">
          <mxGeometry x="420" y="550" width="161" height="230" as="geometry" />
        </mxCell>
        <mxCell id="JkSojsDAD6TwoO30HIZQ-3" value="" style="endArrow=classic;startArrow=classic;html=1;rounded=0;fillColor=#dae8fc;strokeColor=#6c8ebf;" edge="1" parent="1">
          <mxGeometry width="50" height="50" relative="1" as="geometry">
            <mxPoint x="620" y="659.66" as="sourcePoint" />
            <mxPoint x="740" y="659.66" as="targetPoint" />
          </mxGeometry>
        </mxCell>
        <mxCell id="JkSojsDAD6TwoO30HIZQ-4" value="" style="endArrow=classic;startArrow=classic;html=1;rounded=0;fillColor=#dae8fc;strokeColor=#6c8ebf;" edge="1" parent="1">
          <mxGeometry width="50" height="50" relative="1" as="geometry">
            <mxPoint x="1030" y="659.66" as="sourcePoint" />
            <mxPoint x="1150" y="659.66" as="targetPoint" />
          </mxGeometry>
        </mxCell>
        <mxCell id="JkSojsDAD6TwoO30HIZQ-5" value="" style="rounded=0;whiteSpace=wrap;html=1;strokeColor=#FF0000;strokeWidth=2;perimeterSpacing=0;dashed=1;flipH=1;flipV=1;" vertex="1" parent="1">
          <mxGeometry x="440.5" y="600" width="120" height="60" as="geometry" />
        </mxCell>
        <mxCell id="JkSojsDAD6TwoO30HIZQ-6" value="Managed Device System Software" style="rounded=0;whiteSpace=wrap;html=1;strokeWidth=2;strokeColor=#FF0000;" vertex="1" parent="1">
          <mxGeometry x="440.5" y="660" width="120" height="60" as="geometry" />
        </mxCell>
        <mxCell id="JkSojsDAD6TwoO30HIZQ-7" value="MDM Agent Software" style="rounded=0;whiteSpace=wrap;html=1;strokeColor=#007FFF;strokeWidth=2;perimeterSpacing=0;glass=0;shadow=0;direction=west;flipH=0;flipV=1;dashed=1;fillColor=none;" vertex="1" parent="1">
          <mxGeometry x="440.5" y="600" width="120" height="60" as="geometry" />
        </mxCell>
        <mxCell id="JkSojsDAD6TwoO30HIZQ-8" value="&lt;font style=&quot;font-size: 14px;&quot;&gt;&lt;b&gt;MDM Server System&lt;/b&gt;&lt;/font&gt;" style="sketch=0;aspect=fixed;pointerEvents=1;shadow=0;dashed=0;html=1;strokeColor=#6c8ebf;labelPosition=center;verticalLabelPosition=bottom;verticalAlign=top;align=center;fillColor=#dae8fc;shape=mxgraph.mscae.enterprise.server_generic;gradientColor=none;" vertex="1" parent="1">
          <mxGeometry x="1188.71" y="540" width="115.2" height="240" as="geometry" />
        </mxCell>
      </root>
    </mxGraphModel>
  </diagram>
</mxfile>
